<?xml version="1.0" standalone="no"?>
<!DOCTYPE svg PUBLIC "-//W3C//DTD SVG 20010904//EN"
 "http://www.w3.org/TR/2001/REC-SVG-20010904/DTD/svg10.dtd">
<svg version="1.0" xmlns="http://www.w3.org/2000/svg"
 width="2560.000000pt" height="2560.000000pt" viewBox="0 0 2560.000000 2560.000000"
 preserveAspectRatio="xMidYMid meet">

<g transform="translate(0.000000,2560.000000) scale(0.100000,-0.100000)"
fill="#000000" stroke="none">
<path d="M13588 17410 c-9 -6 -26 -23 -37 -38 -21 -30 -1381 -5309 -1381
-5361 0 -37 33 -86 66 -99 57 -22 783 -212 811 -212 36 0 90 33 103 62 14 31
1371 5274 1377 5318 6 42 -26 95 -72 121 -39 22 -775 219 -818 219 -17 0 -40
-5 -49 -10z"/>
<path d="M5570 17305 c-212 -58 -394 -110 -406 -116 -28 -14 -54 -61 -54 -96
0 -15 43 -177 95 -359 52 -183 239 -885 415 -1560 495 -1894 879 -3345 897
-3387 19 -44 56 -67 107 -67 19 0 209 47 423 104 361 97 389 106 415 135 22
24 28 41 28 76 0 41 -1371 5233 -1402 5308 -6 16 -21 35 -32 42 -51 34 -88 28
-486 -80z"/>
<path d="M4708 16365 c-192 -50 -329 -91 -346 -104 -35 -25 -56 -71 -49 -108
3 -16 237 -912 521 -1993 494 -1882 517 -1966 546 -1992 20 -18 41 -28 62 -28
30 0 625 150 681 172 42 16 67 54 67 101 0 22 -99 419 -221 881 -121 463 -353
1347 -515 1966 -162 619 -302 1135 -309 1147 -14 21 -71 44 -105 42 -8 0 -158
-38 -332 -84z"/>
<path d="M14535 16432 c-16 -11 -35 -25 -42 -33 -6 -8 -246 -907 -532 -1998
-486 -1854 -519 -1985 -508 -2018 7 -20 23 -44 37 -54 25 -19 658 -189 701
-189 42 0 85 35 103 82 23 64 1036 3935 1036 3961 0 46 -35 84 -92 100 -141
40 -638 167 -654 167 -11 0 -32 -8 -49 -18z"/>
<path d="M9815 15851 c-77 -19 -127 -64 -145 -132 -7 -25 -9 -366 -8 -996 3
-941 3 -959 23 -993 12 -21 39 -44 65 -58 42 -22 54 -23 212 -20 l167 3 30 29
c37 35 51 80 51 158 l0 57 -42 12 c-154 41 -201 65 -280 146 -73 74 -81 102
-86 293 -5 185 2 224 51 296 51 78 97 97 240 102 l118 4 -3 498 -3 498 -31 39
c-43 54 -102 72 -229 72 -55 -1 -113 -4 -130 -8z"/>
<path d="M10496 15849 c-61 -15 -103 -46 -125 -93 -20 -41 -21 -57 -21 -524
l0 -482 275 0 275 0 0 468 c0 257 -5 485 -10 506 -11 49 -37 85 -81 111 -28
17 -54 20 -154 22 -66 1 -138 -2 -159 -8z"/>
<path d="M8394 15820 c-45 -22 -74 -57 -92 -109 -9 -25 -12 -280 -12 -970 0
-889 1 -938 19 -976 42 -90 97 -115 258 -115 93 0 127 4 158 19 49 22 91 69
105 119 8 26 10 328 8 983 l-3 945 -28 43 c-44 67 -86 81 -242 81 -111 0 -136
-3 -171 -20z"/>
<path d="M9085 15823 c-44 -23 -65 -44 -86 -85 -18 -36 -19 -75 -19 -989 0
-950 0 -953 21 -997 13 -26 38 -54 62 -70 39 -26 45 -27 187 -27 143 0 147 1
188 28 23 15 51 45 62 67 20 39 20 56 20 994 0 650 -3 964 -11 983 -14 38 -57
83 -96 99 -48 21 -288 19 -328 -3z"/>
<path d="M11032 14983 l3 -228 139 -12 c281 -24 721 -114 1299 -267 92 -24
167 -42 167 -40 0 2 27 101 60 221 33 119 57 220 52 225 -11 11 -335 90 -587
143 -425 89 -991 185 -1093 185 l-42 0 2 -227z"/>
<path d="M8075 15188 c-195 -30 -450 -73 -585 -99 -192 -37 -592 -129 -602
-138 -6 -5 106 -438 115 -448 1 -1 115 23 252 53 247 54 609 126 798 159 l97
17 0 234 c0 129 -3 233 -7 233 -5 -1 -35 -6 -68 -11z"/>
<path d="M10044 14593 c-17 -2 -46 -17 -65 -32 l-34 -29 0 -161 0 -160 55 -56
c30 -31 73 -64 95 -75 64 -31 259 -53 410 -47 121 5 141 9 271 51 153 50 178
54 212 30 25 -18 28 -43 8 -82 -12 -22 -38 -37 -134 -75 l-120 -48 -22 -82
c-31 -116 -35 -180 -15 -256 29 -114 96 -227 202 -342 68 -75 78 -104 43 -139
-35 -35 -69 -26 -126 34 -28 30 -72 86 -99 125 l-48 70 -51 -26 c-278 -140
-532 -428 -661 -748 -19 -49 -43 -97 -52 -107 -33 -37 -113 -8 -113 40 0 32
38 132 89 237 140 285 382 541 636 671 41 22 75 45 75 52 0 30 -30 82 -48 82
-29 0 -115 47 -147 80 l-28 30 -54 -51 c-94 -88 -115 -94 -358 -94 -247 0
-265 4 -330 78 l-45 51 -36 -42 c-66 -77 -96 -87 -274 -87 -148 0 -157 1 -210
27 -30 15 -72 45 -94 66 l-38 40 -39 -39 c-72 -72 -160 -99 -326 -99 -72 0
-84 2 -93 20 -6 11 -20 20 -30 20 -20 0 -20 -10 -20 -543 0 -628 -2 -608 85
-706 l55 -62 0 -1339 0 -1340 1025 0 1025 0 0 1023 c0 621 4 1049 10 1091 15
100 55 209 104 285 25 38 152 178 304 333 304 313 321 332 364 424 l33 69 3
798 c1 515 -1 811 -8 836 -14 52 -67 128 -112 161 -62 45 -132 50 -716 48
-290 0 -541 -3 -558 -5z m-649 -2362 c22 -10 51 -31 65 -45 l25 -28 0 -1096
c0 -603 -3 -1109 -8 -1124 -13 -49 -73 -61 -111 -22 -14 14 -16 128 -16 1104
0 739 -3 1091 -10 1095 -6 4 -45 9 -86 12 -80 6 -124 28 -124 62 0 22 29 49
66 61 41 13 151 2 199 -19z"/>
<path d="M4460 14489 c-41 -11 -92 -25 -114 -30 -34 -9 -38 -13 -33 -37 18
-96 251 -940 263 -951 12 -13 29 -11 134 14 67 16 126 35 132 42 8 10 -22 135
-112 475 -67 255 -126 473 -131 486 -11 27 -36 28 -139 1z"/>
<path d="M15046 14501 c-11 -18 -257 -956 -254 -969 4 -17 232 -76 263 -68 18
5 37 70 149 491 70 267 125 489 122 492 -9 9 -225 62 -253 63 -12 0 -24 -4
-27 -9z"/>
<path d="M10437 13893 c-12 -12 -7 -73 9 -111 14 -35 70 -102 85 -102 4 0 10
25 14 56 4 31 13 77 20 102 8 25 12 49 9 54 -6 10 -128 11 -137 1z"/>
<path d="M11450 11350 c-80 -4 -159 -12 -177 -18 -68 -22 -174 -86 -214 -129
-50 -54 -102 -162 -128 -265 -33 -128 -53 -386 -46 -587 19 -528 107 -719 377
-817 27 -10 101 -19 203 -24 140 -6 170 -5 239 12 160 38 280 130 353 274 23
44 47 100 53 125 6 24 15 145 20 268 9 247 4 287 -40 308 -36 17 -527 21 -557
4 -37 -19 -42 -41 -39 -170 4 -159 -1 -155 156 -159 138 -4 130 4 105 -115
-17 -80 -61 -148 -112 -172 -103 -49 -243 -41 -302 17 -79 78 -95 164 -94 528
1 433 28 524 167 570 51 17 161 7 220 -19 47 -21 101 -89 112 -141 15 -76 26
-101 47 -108 12 -4 84 -5 160 -2 131 5 140 6 158 29 24 29 24 75 0 167 -53
207 -189 355 -369 402 -107 29 -127 30 -292 22z"/>
<path d="M12494 11330 c-17 -6 -37 -16 -43 -23 -20 -25 -31 -1741 -11 -1761 8
-8 166 -12 519 -14 507 -3 507 -2 527 19 16 18 19 40 22 158 3 125 2 138 -16
154 -17 16 -55 18 -359 24 l-340 6 -7 60 c-3 33 -6 122 -6 197 l0 137 182 6
c99 4 252 7 339 7 195 0 184 -9 192 172 5 110 3 130 -11 148 -17 21 -28 22
-355 27 l-337 6 2 161 3 161 330 2 c182 0 335 2 342 2 25 2 33 43 38 176 4
125 3 137 -15 155 -19 19 -35 20 -352 20 -183 0 -396 2 -473 5 -79 3 -154 0
-171 -5z"/>
<path d="M13983 11332 l-233 -2 -16 -25 c-23 -35 -17 -286 8 -311 14 -14 40
-17 180 -16 90 0 172 -2 182 -5 19 -5 19 -22 12 -694 -8 -786 -12 -742 71
-752 26 -3 92 -2 146 2 77 6 102 12 117 27 18 18 20 50 26 721 l7 701 156 -2
c86 -2 166 1 178 5 40 15 47 45 44 184 -2 111 -5 133 -21 149 -17 18 -38 19
-322 20 -167 1 -408 0 -535 -2z"/>
<path d="M16392 11329 c-21 -6 -36 -19 -43 -37 -7 -17 -13 -331 -16 -884 l-6
-857 27 -11 c34 -13 236 -13 270 0 14 5 33 21 42 36 16 24 18 57 16 364 -1
186 1 341 5 343 5 3 158 8 341 12 324 8 334 8 347 29 8 13 15 70 18 148 5 110
3 130 -11 148 -17 21 -28 22 -355 27 l-337 6 2 161 3 161 339 1 c303 0 340 2
351 17 7 10 14 72 18 154 5 113 4 142 -9 160 l-14 23 -338 0 c-185 0 -400 2
-477 5 -82 3 -154 0 -173 -6z"/>
<path d="M17764 11330 c-17 -6 -36 -16 -42 -23 -16 -18 -32 -1732 -17 -1756
11 -19 79 -29 196 -30 98 0 119 2 132 17 13 15 16 125 23 862 5 465 7 856 6
870 -6 52 -30 62 -154 66 -62 2 -127 -1 -144 -6z"/>
<path d="M18554 11332 c-169 -2 -235 -6 -242 -15 -13 -16 -14 -31 -13 -178 1
-87 5 -131 14 -144 13 -16 30 -18 186 -18 122 1 175 -3 184 -11 9 -10 11 -115
7 -452 -3 -241 -4 -553 -4 -692 1 -318 -11 -297 169 -294 90 1 134 6 155 17
17 9 30 17 31 18 0 1 2 315 5 697 3 382 7 700 9 707 3 9 45 11 162 9 91 -2
167 1 180 7 33 15 42 51 41 185 0 180 32 164 -344 166 -170 0 -413 0 -540 -2z"/>
<path d="M15000 10302 c-43 -13 -50 -32 -50 -129 0 -86 2 -96 25 -118 l24 -25
483 -1 c266 -1 490 0 498 1 36 4 47 33 54 137 6 100 6 103 -18 118 -21 14 -88
16 -513 19 -269 1 -495 0 -503 -2z"/>
</g>
</svg>
